<?xml version="1.0" encoding="UTF-8" standalone="no"?>
<!-- Created with Inkscape (http://www.inkscape.org/) -->

<svg
   width="1024"
   height="1024"
   viewBox="0 0 270.93333 270.93333"
   version="1.1"
   id="svg1"
   sodipodi:docname="drawing.svg"
   inkscape:version="1.3.2 (091e20e, 2023-11-25)"
   inkscape:export-filename="logo_16.png"
   inkscape:export-xdpi="1.5"
   inkscape:export-ydpi="1.5"
   xmlns:inkscape="http://www.inkscape.org/namespaces/inkscape"
   xmlns:sodipodi="http://sodipodi.sourceforge.net/DTD/sodipodi-0.dtd"
   xmlns="http://www.w3.org/2000/svg"
   xmlns:svg="http://www.w3.org/2000/svg">
  <sodipodi:namedview
     id="namedview1"
     pagecolor="#505050"
     bordercolor="#eeeeee"
     borderopacity="1"
     inkscape:showpageshadow="0"
     inkscape:pageopacity="0"
     inkscape:pagecheckerboard="true"
     inkscape:deskcolor="#505050"
     inkscape:document-units="px"
     showgrid="false"
     inkscape:zoom="0.30263805"
     inkscape:cx="1050.7601"
     inkscape:cy="457.64238"
     inkscape:window-width="1576"
     inkscape:window-height="746"
     inkscape:window-x="0"
     inkscape:window-y="25"
     inkscape:window-maximized="0"
     inkscape:current-layer="svg1"
     inkscape:export-bgcolor="#00000000">
    <inkscape:grid
       id="grid1"
       units="mm"
       originx="0"
       originy="0"
       spacingx="0.99999998"
       spacingy="1"
       empcolor="#0099e5"
       empopacity="0.30196078"
       color="#0099e5"
       opacity="0.14901961"
       empspacing="5"
       dotted="false"
       gridanglex="30"
       gridanglez="30"
       visible="false" />
  </sodipodi:namedview>
  <defs
     id="defs1">
    <filter
       style="color-interpolation-filters:sRGB"
       x="-0.084485601"
       width="1.1689712"
       y="-0.088041518"
       height="1.176083"
       inkscape:menu="Non-Realistic 3D Shaders"
       inkscape:menu-tooltip="Satiny glass effect"
       inkscape:label="Frosted Glass"
       id="filter53">
      <feGaussianBlur
         in="SourceGraphic"
         result="result8"
         stdDeviation="7.42421"
         id="feGaussianBlur47" />
      <feComposite
         result="result18"
         operator="xor"
         in2="result8"
         in="SourceGraphic"
         id="feComposite47" />
      <feComposite
         in2="result18"
         result="result16"
         operator="arithmetic"
         k2="0.5"
         k1="1"
         in="result8"
         id="feComposite48" />
      <feComposite
         in="result16"
         operator="atop"
         result="result6"
         in2="result8"
         id="feComposite49" />
      <feOffset
         in="result6"
         result="result17"
         id="feOffset49" />
      <feDisplacementMap
         result="result4"
         scale="100"
         yChannelSelector="A"
         xChannelSelector="A"
         in="result17"
         in2="result16"
         id="feDisplacementMap49" />
      <feComposite
         k3="1"
         in="result17"
         operator="arithmetic"
         result="result2"
         in2="result4"
         id="feComposite50" />
      <feComposite
         operator="out"
         in="result2"
         result="fbSourceGraphic"
         in2="result17"
         id="feComposite51" />
      <feComposite
         result="result14"
         operator="over"
         in2="fbSourceGraphic"
         in="fbSourceGraphic"
         id="feComposite52" />
      <feComposite
         in="result14"
         operator="in"
         in2="SourceGraphic"
         result="result15"
         id="feComposite53" />
    </filter>
    <filter
       style="color-interpolation-filters:sRGB"
       x="-0.50155484"
       width="2.0031097"
       y="-0.52266479"
       height="2.0453296"
       inkscape:menu="Non-Realistic 3D Shaders"
       inkscape:menu-tooltip="Satiny glass effect"
       inkscape:label="Frosted Glass"
       id="filter96">
      <feGaussianBlur
         in="SourceGraphic"
         result="result8"
         stdDeviation="44.074355"
         id="feGaussianBlur90" />
      <feComposite
         result="result18"
         operator="xor"
         in2="result8"
         in="SourceGraphic"
         id="feComposite90" />
      <feComposite
         in2="result18"
         result="result16"
         operator="arithmetic"
         k2="0.5"
         k1="1"
         in="result8"
         id="feComposite91" />
      <feComposite
         in="result16"
         operator="atop"
         result="result6"
         in2="result8"
         id="feComposite92" />
      <feOffset
         in="result6"
         result="result17"
         id="feOffset92" />
      <feDisplacementMap
         result="result4"
         scale="100"
         yChannelSelector="A"
         xChannelSelector="A"
         in="result17"
         in2="result16"
         id="feDisplacementMap92" />
      <feComposite
         k3="1"
         in="result17"
         operator="arithmetic"
         result="result2"
         in2="result4"
         id="feComposite93" />
      <feComposite
         operator="out"
         in="result2"
         result="fbSourceGraphic"
         in2="result17"
         id="feComposite94" />
      <feComposite
         result="result14"
         operator="over"
         in2="fbSourceGraphic"
         in="fbSourceGraphic"
         id="feComposite95" />
      <feComposite
         in="result14"
         operator="in"
         in2="SourceGraphic"
         result="result15"
         id="feComposite96" />
    </filter>
    <filter
       style="color-interpolation-filters:sRGB;"
       inkscape:label="Brilliance"
       id="filter114"
       x="-0.89648105"
       y="-0.92255983"
       width="2.8061451"
       height="2.8873407">
      <feFlood
         result="flood"
         in="SourceGraphic"
         flood-opacity="0.498039"
         flood-color="rgb(0,0,0)"
         id="feFlood113" />
      <feGaussianBlur
         result="blur"
         in="SourceGraphic"
         stdDeviation="16.969696"
         id="feGaussianBlur113" />
      <feOffset
         result="offset"
         in="blur"
         dx="1.359517"
         dy="4.300000"
         id="feOffset113" />
      <feComposite
         result="comp1"
         operator="in"
         in="flood"
         in2="offset"
         id="feComposite113" />
      <feComposite
         result="fbSourceGraphic"
         operator="over"
         in="SourceGraphic"
         in2="comp1"
         id="feComposite114" />
      <feColorMatrix
         result="fbSourceGraphicAlpha"
         in="fbSourceGraphic"
         values="0 0 0 -1 0 0 0 0 -1 0 0 0 0 -1 0 0 0 0 1 0"
         id="feColorMatrix114" />
      <feFlood
         id="feFlood114"
         result="flood"
         in="fbSourceGraphic"
         flood-opacity="0.498039"
         flood-color="rgb(0,0,0)" />
      <feGaussianBlur
         id="feGaussianBlur114"
         result="blur"
         in="fbSourceGraphic"
         stdDeviation="16.969696" />
      <feOffset
         id="feOffset114"
         result="offset"
         in="blur"
         dx="1.359517"
         dy="4.300000" />
      <feComposite
         id="feComposite115"
         result="comp1"
         operator="in"
         in="flood"
         in2="offset" />
      <feComposite
         id="feComposite116"
         result="fbSourceGraphic"
         operator="over"
         in="fbSourceGraphic"
         in2="comp1" />
      <feColorMatrix
         result="fbSourceGraphicAlpha"
         in="fbSourceGraphic"
         values="0 0 0 -1 0 0 0 0 -1 0 0 0 0 -1 0 0 0 0 1 0"
         id="feColorMatrix144" />
      <feColorMatrix
         id="feColorMatrix145"
         values="2.56402 -0.670732 -0.670732 0 0.01 -0.670732 2.56402 -0.670732 0 0.01 -0.670732 -0.670732 2.56402 0 0.01 0 0 0 1 0 "
         in="fbSourceGraphic" />
    </filter>
    <filter
       style="color-interpolation-filters:sRGB"
       inkscape:label="Drop Shadow"
       id="filter122"
       x="-0.00054618918"
       y="-0.0005454841"
       width="1.0010924"
       height="1.001091">
      <feFlood
         result="flood"
         in="SourceGraphic"
         flood-opacity="0.498039"
         flood-color="rgb(0,0,0)"
         id="feFlood121" />
      <feGaussianBlur
         result="blur"
         in="SourceGraphic"
         stdDeviation="0.098006464"
         id="feGaussianBlur121" />
      <feOffset
         result="offset"
         in="blur"
         dx="0.000000"
         dy="0.000000"
         id="feOffset121" />
      <feComposite
         result="comp1"
         operator="out"
         in="flood"
         in2="offset"
         id="feComposite121" />
      <feComposite
         result="comp2"
         operator="atop"
         in="comp1"
         in2="SourceGraphic"
         id="feComposite122" />
    </filter>
  </defs>
  <path
     id="rect1"
     style="opacity:1;mix-blend-mode:lighten;fill:#fefefe;fill-opacity:0.99543399;stroke-width:0.352491;filter:url(#filter122)"
     sodipodi:type="inkscape:offset"
     inkscape:radius="80.392136"
     inkscape:original="M -0.083984375 1.03125 L -0.083984375 271.45117 L 269.7793 271.45117 L 269.7793 1.03125 L -0.083984375 1.03125 z "
     d="M -0.08398437,-79.361328 A 80.400175,80.400175 0 0 0 -80.476562,1.03125 v 270.41992 a 80.400175,80.400175 0 0 0 80.39257763,80.39258 H 269.7793 a 80.400175,80.400175 0 0 0 80.39257,-80.39258 V 1.03125 A 80.400175,80.400175 0 0 0 269.7793,-79.361328 Z"
     transform="matrix(0.70560063,0.00531128,-0.00541372,0.69224944,41.055638,40.437545)" />
  <g
     id="g90"
     transform="matrix(0.97795878,0,0,1.0064572,-12.570659,16.498119)"
     style="mix-blend-mode:luminosity;fill:#010101;fill-opacity:0.9977169;filter:url(#filter96)">
    <path
       d="M 137.35389,164.66073 H 95.935745 v 31.92105 c 0,9.01382 1.905673,15.87663 5.717485,20.5884 3.8118,4.60935 8.83204,6.91431 15.06109,6.91431 5.95014,0 10.87778,-2.35601 14.78256,-7.06779 3.90478,-4.71177 5.85701,-11.62563 5.85701,-20.74188 z"
       style="font-size:299.784px;fill:#010101;fill-opacity:0.9977169;stroke-width:24.9817"
       id="path88" />
    <path
       d="m 122.15327,21.701517 c -9.11115,0 -15.75825,2.150783 -19.94194,6.452836 -4.18369,4.302054 -6.275585,11.47219 -6.275585,21.510315 V 165.40231 h 41.418145 v -6.18877 h 37.93257 c 25.38105,0 44.48641,-5.88978 57.31639,-17.66921 12.82999,-11.88186 19.24482,-29.2949 19.24482,-52.239188 0,-10.755133 -1.5803,-20.43443 -4.74131,-29.038537 -3.16101,-8.604107 -7.80932,-15.876859 -13.9454,-21.81779 -6.04311,-5.94093 -13.24835,-10.191963 -21.61574,-12.752709 -8.46035,-2.663176 -20.54668,-3.994589 -36.25876,-3.994589 z m 15.20062,34.263025 h 27.89132 c 18.50121,0 30.72721,3.328531 36.67735,9.98647 5.29934,6.248221 7.94886,14.340343 7.94886,24.276038 0,8.296817 -1.71996,15.00596 -5.15989,20.12745 -3.43992,5.1215 -8.46016,8.80892 -15.06109,11.06238 -6.50797,2.25345 -14.64329,3.38015 -24.40523,3.38015 h -27.89132 z"
       style="font-size:299.784px;fill:#010101;fill-opacity:0.9977169;stroke-width:24.9817"
       id="path89" />
    <path
       d="M 97.403493,160.93646 V 125.45205 H 67.076171 c -8.563786,0 -15.083955,1.63266 -19.560479,4.89836 -4.379218,3.26571 -6.569098,7.56674 -6.569098,12.90339 0,5.0977 2.238381,9.31939 6.714914,12.66475 4.476526,3.34537 11.045196,5.01791 19.706298,5.01791 z"
       style="font-size:299.784px;fill:#010101;fill-opacity:0.9977169;stroke-width:22.5385"
       id="path90"
       inkscape:label="path6" />
  </g>
  <g
     id="g6"
     transform="matrix(0.97795878,0,0,1.0064572,-12.570659,16.498119)"
     style="display:inline;fill:#020202;fill-opacity:0.99771702;filter:url(#filter53);opacity:1">
    <path
       d="M 137.35389,164.66073 H 95.935745 v 31.92105 c 0,9.01382 1.905673,15.87663 5.717485,20.5884 3.8118,4.60935 8.83204,6.91431 15.06109,6.91431 5.95014,0 10.87778,-2.35601 14.78256,-7.06779 3.90478,-4.71177 5.85701,-11.62563 5.85701,-20.74188 z"
       style="font-size:299.784px;fill:#020202;fill-opacity:0.99771702;stroke-width:24.9817"
       id="path4" />
    <path
       d="m 122.15327,21.701517 c -9.11115,0 -15.75825,2.150783 -19.94194,6.452836 -4.18369,4.302054 -6.275585,11.47219 -6.275585,21.510315 V 165.40231 h 41.418145 v -6.18877 h 37.93257 c 25.38105,0 44.48641,-5.88978 57.31639,-17.66921 12.82999,-11.88186 19.24482,-29.2949 19.24482,-52.239188 0,-10.755133 -1.5803,-20.43443 -4.74131,-29.038537 -3.16101,-8.604107 -7.80932,-15.876859 -13.9454,-21.81779 -6.04311,-5.94093 -13.24835,-10.191963 -21.61574,-12.752709 -8.46035,-2.663176 -20.54668,-3.994589 -36.25876,-3.994589 z m 15.20062,34.263025 h 27.89132 c 18.50121,0 30.72721,3.328531 36.67735,9.98647 5.29934,6.248221 7.94886,14.340343 7.94886,24.276038 0,8.296817 -1.71996,15.00596 -5.15989,20.12745 -3.43992,5.1215 -8.46016,8.80892 -15.06109,11.06238 -6.50797,2.25345 -14.64329,3.38015 -24.40523,3.38015 h -27.89132 z"
       style="font-size:299.784px;fill:#020202;fill-opacity:0.99771702;stroke-width:24.9817"
       id="path5" />
    <path
       d="M 97.403493,160.93646 V 125.45205 H 67.076171 c -8.563786,0 -15.083955,1.63266 -19.560479,4.89836 -4.379218,3.26571 -6.569098,7.56674 -6.569098,12.90339 0,5.0977 2.238381,9.31939 6.714914,12.66475 4.476526,3.34537 11.045196,5.01791 19.706298,5.01791 z"
       style="font-size:299.784px;fill:#020202;fill-opacity:0.99771702;stroke-width:22.5385"
       id="path6"
       inkscape:label="path6" />
  </g>
</svg>
